<?xml version="1.0" encoding="utf-8"?>
<!-- Generator: Adobe Illustrator 15.0.0, SVG Export Plug-In . SVG Version: 6.00 Build 0)  -->
<!DOCTYPE svg PUBLIC "-//W3C//DTD SVG 1.1//EN" "http://www.w3.org/Graphics/SVG/1.1/DTD/svg11.dtd">
<svg version="1.1" id="svg27" xmlns:svg="http://www.w3.org/2000/svg"
	 xmlns="http://www.w3.org/2000/svg" xmlns:xlink="http://www.w3.org/1999/xlink" x="0px" y="0px" width="906.994px"
	 height="231.128px" viewBox="0 0 906.994 231.128" enable-background="new 0 0 906.994 231.128" xml:space="preserve">
<radialGradient id="circle18_1_" cx="658.3938" cy="-318.7383" r="1.0018" gradientTransform="matrix(3.735173e-015 61 -61 3.735173e-015 -19256.1309 -40102.6172)" gradientUnits="userSpaceOnUse">
	<stop  offset="0" style="stop-color:#FFFFFF"/>
	<stop  offset="0.45" style="stop-color:#67E8F9"/>
	<stop  offset="1" style="stop-color:#0891B2"/>
</radialGradient>
<path id="circle18" fill="url(#circle18_1_)" d="M244.874,59.5c0,32.033-25.969,58-58,58l0,0c-32.033,0-58-25.967-58-58l0,0
	c0-32.031,25.967-58,58-58l0,0C218.906,1.5,244.874,27.468,244.874,59.5L244.874,59.5z"/>
<g id="g26">
	
		<linearGradient id="text24_1_" gradientUnits="userSpaceOnUse" x1="-0.425" y1="-6.3037" x2="859.5812" y2="73.6968" gradientTransform="matrix(1 0 0 1 -0.04 57.1895)">
		<stop  offset="0" style="stop-color:#67E8F9"/>
		<stop  offset="1" style="stop-color:#FFFFFF"/>
	</linearGradient>
	<path id="text24" fill="url(#text24_1_)" d="M46.462,110.5L24.416,32.886h-0.604c0.201,2.014,0.402,4.73,0.604,8.154
		c0.2,3.422,0.401,7.146,0.604,11.174c0.201,3.926,0.302,7.75,0.302,11.476v46.81H-0.498V2.686h38.807l22.499,76.558h0.604
		L83.458,2.686h38.808V110.5H95.537V63.237c0-3.422,0.052-7.046,0.151-10.872c0.102-3.926,0.252-7.601,0.453-11.023
		c0.201-3.522,0.353-6.291,0.453-8.305H95.99L74.244,110.5H46.462z"/>
	
		<linearGradient id="text25_1_" gradientUnits="userSpaceOnUse" x1="1.6448" y1="-28.5327" x2="861.6408" y2="51.4669" gradientTransform="matrix(1 0 0 1 -0.04 57.1895)">
		<stop  offset="0" style="stop-color:#67E8F9"/>
		<stop  offset="1" style="stop-color:#FFFFFF"/>
	</linearGradient>
	<path id="text25" fill="url(#text25_1_)" d="M353.367,56.442c0,11.175-1.812,20.938-5.436,29.294
		c-3.523,8.256-9.161,14.697-16.912,19.328c-7.65,4.631-17.667,6.945-30.049,6.945c-12.08,0-21.996-2.314-29.747-6.945
		S257.735,93.94,254.01,85.585c-3.624-8.355-5.438-18.121-5.438-29.295s1.862-20.888,5.587-29.143
		c3.726-8.355,9.463-14.798,17.216-19.328c7.751-4.529,17.667-6.795,29.745-6.795c12.282,0,22.248,2.314,29.898,6.945
		c7.751,4.531,13.389,10.974,16.912,19.328C351.557,35.554,353.367,45.268,353.367,56.442z M279.228,56.442
		c0,9.765,1.661,17.416,4.983,22.952c3.422,5.537,9.009,8.305,16.761,8.305c8.053,0,13.689-2.769,16.912-8.305
		c3.221-5.537,4.832-13.188,4.832-22.952s-1.611-17.465-4.832-23.103c-3.223-5.637-8.81-8.457-16.763-8.457
		c-7.952,0-13.59,2.82-16.911,8.457C280.889,38.977,279.228,46.677,279.228,56.442z"/>
	
		<linearGradient id="text26_1_" gradientUnits="userSpaceOnUse" x1="4.4656" y1="-58.8823" x2="864.467" y2="21.1178" gradientTransform="matrix(1 0 0 1 -0.04 57.1895)">
		<stop  offset="0" style="stop-color:#67E8F9"/>
		<stop  offset="1" style="stop-color:#FFFFFF"/>
	</linearGradient>
	<path id="text26" fill="url(#text26_1_)" d="M458.181,110.5h-38.203l-39.411-75.953h-0.604c0.2,2.315,0.401,5.135,0.604,8.457
		c0.201,3.222,0.354,6.492,0.453,9.814c0.201,3.322,0.302,6.342,0.302,9.061V110.5h-25.819V2.686h38.052l39.26,74.896h0.453
		c-0.102-2.314-0.252-5.033-0.453-8.153c-0.201-3.121-0.353-6.292-0.453-9.513c-0.1-3.222-0.149-6.041-0.149-8.457V2.686h25.972
		V110.5H458.181z M521.032,2.686c15.604,0,26.729,2.315,33.371,6.946c6.646,4.631,9.966,11.275,9.966,19.932
		c0,4.73-0.854,8.758-2.565,12.08c-1.712,3.221-3.876,5.788-6.493,7.701c-2.517,1.912-5.134,3.221-7.853,3.926v0.755
		c2.92,0.705,5.839,1.913,8.759,3.624c2.919,1.711,5.335,4.277,7.248,7.701c2.013,3.322,3.02,7.852,3.02,13.59
		c0,9.766-3.674,17.467-11.021,23.104c-7.351,5.637-17.365,8.455-30.051,8.455h-41.978V2.686H521.032z M521.336,44.06
		c4.831,0,8.203-1.008,10.115-3.02c2.015-2.014,3.021-4.43,3.021-7.248c0-6.041-4.58-9.061-13.741-9.061h-8.154V44.06H521.336
		L521.336,44.06z M512.576,65.351v22.65h10.27c5.033,0,8.557-1.058,10.569-3.172c2.014-2.215,3.021-4.982,3.021-8.305
		c0-2.919-1.007-5.486-3.021-7.701c-2.014-2.314-5.737-3.473-11.175-3.473H512.576L512.576,65.351z M651.233,110.5h-64.023V2.686
		h64.023v23.405h-34.881v16.912h32.313v23.404h-32.313v20.385h34.881V110.5z M738.244,110.5l-5.284-20.233h-35.031l-5.438,20.233
		H660.48L695.662,2.233h38.809L770.107,110.5H738.244z M722.239,48.742c-0.503-1.914-1.208-4.632-2.112-8.154
		c-0.906-3.625-1.813-7.35-2.72-11.174c-0.905-3.826-1.609-6.947-2.112-9.363c-0.403,2.416-1.059,5.437-1.965,9.061
		c-0.805,3.624-1.66,7.198-2.565,10.721c-0.806,3.523-1.511,6.494-2.114,8.91l-4.681,17.666h22.952L722.239,48.742z M830.695,110.5
		l-22.046-77.613h-0.604c0.202,2.014,0.402,4.73,0.604,8.154c0.201,3.422,0.402,7.146,0.604,11.174
		c0.201,3.926,0.302,7.75,0.302,11.476v46.81h-25.821V2.686h38.807l22.5,76.558h0.604L867.69,2.686h38.808V110.5H879.77V63.237
		c0-3.422,0.05-7.046,0.151-10.872c0.101-3.926,0.251-7.601,0.451-11.023c0.202-3.522,0.354-6.291,0.453-8.305h-0.604L858.479,110.5
		H830.695z"/>
</g>
<linearGradient id="text27_1_" gradientUnits="userSpaceOnUse" x1="338.6169" y1="113.2979" x2="638.6175" y2="178.298" gradientTransform="matrix(1 0 0 1 -0.04 57.1895)">
	<stop  offset="0" style="stop-color:#a5f3fc"/>
	<stop  offset="1" style="stop-color:#FFFFFF"/>
</linearGradient>
<path id="text27" fill="url(#text27_1_)" d="M355.268,231.128h-7.344V188.9h-14.553v-6.324h36.448v6.324h-14.553L355.268,231.128
	L355.268,231.128z M420.732,231.128l-5.168-14.008h-18.768l-5.168,14.008h-7.616l18.428-48.756h7.616l18.359,48.756H420.732z
	 M408.628,197.06c-0.137-0.498-0.387-1.246-0.748-2.242c-0.317-0.998-0.636-2.041-0.952-3.129c-0.317-1.09-0.566-1.973-0.748-2.652
	c-0.362,1.406-0.771,2.902-1.224,4.488c-0.453,1.586-0.816,2.766-1.089,3.535l-4.896,13.668h14.552L408.628,197.06z
	 M452.944,231.128v-48.553h7.345v42.229h20.739v6.324H452.944z M534.728,231.128h-27.336v-48.553h27.336v6.256h-19.992v13.873h18.77
	v6.188h-18.77v15.912h19.992V231.128z M603.115,231.128h-8.906l-24.549-39.236h-0.271c0.091,1.813,0.204,3.898,0.34,6.256
	c0.136,2.313,0.204,4.691,0.204,7.141v25.84h-6.664v-48.551h8.84l24.48,39.031h0.204c-0.047-0.951-0.113-2.152-0.204-3.605
	c-0.045-1.451-0.091-2.992-0.136-4.623c-0.047-1.678-0.092-3.242-0.138-4.691v-26.111h6.801L603.115,231.128z M650.356,231.128
	h-7.344V188.9H628.46v-6.324h36.447v6.324h-14.553L650.356,231.128L650.356,231.128z"/>
</svg>
