<?xml version="1.0" encoding="utf-8"?>
<!-- Generator: Adobe Illustrator 15.0.0, SVG Export Plug-In . SVG Version: 6.00 Build 0)  -->
<!DOCTYPE svg PUBLIC "-//W3C//DTD SVG 1.1//EN" "http://www.w3.org/Graphics/SVG/1.1/DTD/svg11.dtd">
<svg version="1.1" id="svg27" xmlns:svg="http://www.w3.org/2000/svg"
	 xmlns="http://www.w3.org/2000/svg" xmlns:xlink="http://www.w3.org/1999/xlink" x="0px" y="0px" width="906.995px"
	 height="231.128px" viewBox="298.627 283.5 906.995 231.128" enable-background="new 298.627 283.5 906.995 231.128"
	 xml:space="preserve">
<linearGradient id="path14_1_" gradientUnits="userSpaceOnUse" x1="478.741" y1="564.0039" x2="813.8959" y2="410.6279" gradientTransform="matrix(1 0 0 -1 -0.02 899.0947)">
	<stop  offset="0" style="stop-color:#67e8f9;stop-opacity:0.9"/>
	<stop  offset="0.45" style="stop-color:#0891b2;stop-opacity:0.6"/>
	<stop  offset="1" style="stop-color:#0e7490;stop-opacity:0.1"/>
</linearGradient>
<path id="path14" fill="url(#path14_1_)" d="M467.533,354.211c94.067,7.16,186.936,33.692,310.361,95.6l43.139,17.688
	C705.996,416.12,602.942,382.85,480.715,350L467.533,354.211z"/>
<linearGradient id="path15_1_" gradientUnits="userSpaceOnUse" x1="481.6116" y1="561.3115" x2="801.484" y2="411.2829" gradientTransform="matrix(1 0 0 -1 -0.02 899.0947)">
	<stop  offset="0" style="stop-color:#ffffff;stop-opacity:1"/>
	<stop  offset="0.6" style="stop-color:#67e8f9;stop-opacity:0.75"/>
	<stop  offset="1" style="stop-color:#0891b2;stop-opacity:0.15"/>
</linearGradient>
<path id="path15" fill="url(#path15_1_)" d="M471.128,353.791c87.477,16.003,179.147,44.641,300.775,103.602l26.363,8.002
	c-124.025-51.38-215.096-83.809-319.948-113.71L471.128,353.791z"/>
<path id="path16" fill="none" stroke="#0891b2" stroke-width="4" stroke-linecap="round" stroke-opacity="1" d="M478.318,351.264
	c87.477,15.582,176.151,41.693,283.399,94.337"/>
<path id="path17" fill="none" stroke="#67e8f9" stroke-width="2.2" stroke-linecap="round" stroke-opacity="0.8" d="
	M479.516,357.16c80.287,19.373,166.564,46.326,258.235,80.018"/>
<path id="path18" fill="none" stroke="#a5f3fc" stroke-width="3" stroke-linecap="round" stroke-opacity="0.6" d="M520,347
	c130-2,300-2,608,1"/>
<radialGradient id="circle18_1_" cx="502.031" cy="862.2617" r="1.0008" gradientTransform="matrix(3.735173e-015 61 61 -3.735173e-015 -52112 -30280.9219)" gradientUnits="userSpaceOnUse">
	<stop  offset="0" style="stop-color:#ffffff"/>
	<stop  offset="0.45" style="stop-color:#67e8f9"/>
	<stop  offset="1" style="stop-color:#0891b2"/>
</radialGradient>
<path id="circle18" fill="url(#circle18_1_)" stroke="none" d="M544,343c0,32.033-25.968,58-58,58l0,0
	c-32.033,0-58-25.967-58-58l0,0c0-32.032,25.967-58,58-58l0,0C518.032,285,544,310.968,544,343L544,343z"/>
<path id="circle19" fill="#ffffff" fill-opacity="0.48" d="M467,322c0,3.866-3.135,7-7,7c-3.866,0-7-3.134-7-7s3.134-7,7-7
	C463.865,315,467,318.134,467,322z"/>
<path id="circle20" fill="#ffffff" fill-opacity="0.35" d="M479,359c0,4.971-4.03,9-9,9c-4.971,0-9-4.029-9-9s4.029-9,9-9
	C474.97,350,479,354.029,479,359z"/>
<path id="circle21" fill="#ffffff" fill-opacity="0.36" d="M508,326c0,3.313-2.687,6-6,6c-3.314,0-6-2.687-6-6s2.686-6,6-6
	C505.314,320,508,322.687,508,326z"/>
<path id="circle22" fill="#ffffff" fill-opacity="0.28" d="M522,351c0,5.523-4.478,10-10,10c-5.523,0-10-4.477-10-10s4.477-10,10-10
	C517.523,341,522,345.477,522,351z"/>
<path id="circle23" fill="#ffffff" fill-opacity="0.42" d="M489,305c0,2.761-2.239,5-5,5c-2.762,0-5-2.239-5-5s2.238-5,5-5
	C486.761,300,489,302.239,489,305z"/>
<path id="circle24" fill="#ffffff" fill-opacity="0.3" d="M453,345c0,2.209-1.791,4-4,4c-2.21,0-4-1.791-4-4s1.79-4,4-4
	C451.209,341,453,342.791,453,345z"/>
<g id="g26">
	
		<linearGradient id="text24_1_" gradientUnits="userSpaceOnUse" x1="298.6819" y1="564.709" x2="1158.6819" y2="484.709" gradientTransform="matrix(1 0 0 -1 -0.02 899.0947)">
		<stop  offset="0" style="stop-color:#67e8f9"/>
		<stop  offset="0.45" style="stop-color:#0891b2"/>
		<stop  offset="1" style="stop-color:#ffffff"/>
	</linearGradient>
	<path id="text24" fill="url(#text24_1_)" d="M345.588,394l-22.046-77.614h-0.604c0.201,2.014,0.402,4.731,0.604,8.154
		c0.201,3.423,0.402,7.147,0.604,11.174c0.201,3.926,0.302,7.751,0.302,11.476V394h-25.82V286.186h38.807l22.499,76.557h0.604
		l22.046-76.557h38.808V394h-26.728v-47.263c0-3.422,0.051-7.046,0.151-10.872c0.101-3.926,0.252-7.601,0.453-11.023
		c0.201-3.523,0.353-6.292,0.453-8.305h-0.604L373.371,394H345.588z"/>
	
		<linearGradient id="text25_1_" gradientUnits="userSpaceOnUse" x1="300.7507" y1="586.9375" x2="1160.7467" y2="506.9379" gradientTransform="matrix(1 0 0 -1 -0.02 899.0947)">
		<stop  offset="0" style="stop-color:#67e8f9"/>
		<stop  offset="0.45" style="stop-color:#0891b2"/>
		<stop  offset="1" style="stop-color:#ffffff"/>
	</linearGradient>
	<path id="text25" fill="url(#text25_1_)" d="M652.494,339.942c0,11.174-1.812,20.939-5.436,29.294
		c-3.523,8.255-9.161,14.697-16.912,19.328c-7.65,4.631-17.667,6.946-30.049,6.946c-12.08,0-21.996-2.315-29.747-6.946
		s-13.489-11.124-17.214-19.479c-3.624-8.355-5.437-18.12-5.437-29.294s1.862-20.888,5.587-29.143
		c3.725-8.355,9.463-14.798,17.215-19.328c7.751-4.53,17.667-6.795,29.746-6.795c12.282,0,22.248,2.315,29.898,6.946
		c7.751,4.53,13.389,10.973,16.912,19.328C650.683,319.054,652.494,328.768,652.494,339.942z M578.354,339.942
		c0,9.765,1.661,17.416,4.983,22.952c3.422,5.537,9.009,8.305,16.761,8.305c8.053,0,13.69-2.769,16.912-8.305
		c3.221-5.537,4.832-13.188,4.832-22.952s-1.611-17.465-4.832-23.103c-3.222-5.637-8.809-8.456-16.762-8.456
		c-7.952,0-13.59,2.819-16.911,8.456C580.015,322.477,578.354,330.177,578.354,339.942z"/>
	
		<linearGradient id="text26_1_" gradientUnits="userSpaceOnUse" x1="303.573" y1="617.2871" x2="1163.573" y2="537.2871" gradientTransform="matrix(1 0 0 -1 -0.02 899.0947)">
		<stop  offset="0" style="stop-color:#67e8f9"/>
		<stop  offset="0.45" style="stop-color:#0891b2"/>
		<stop  offset="1" style="stop-color:#ffffff"/>
	</linearGradient>
	<path id="text26" fill="url(#text26_1_)" d="M757.307,394h-38.203l-39.411-75.953h-0.604c0.201,2.315,0.402,5.134,0.604,8.456
		c0.201,3.222,0.353,6.493,0.453,9.815c0.201,3.322,0.302,6.342,0.302,9.06V394h-25.82V286.186h38.052l39.26,74.896h0.453
		c-0.101-2.315-0.252-5.033-0.453-8.154c-0.201-3.121-0.353-6.292-0.453-9.513s-0.15-6.04-0.15-8.456v-48.773h25.972V394z
		 M820.159,286.186c15.604,0,26.728,2.315,33.371,6.946c6.645,4.631,9.966,11.275,9.966,19.932c0,4.731-0.855,8.758-2.566,12.08
		c-1.712,3.221-3.876,5.788-6.493,7.701c-2.517,1.913-5.134,3.221-7.853,3.926v0.755c2.92,0.705,5.839,1.913,8.759,3.624
		c2.919,1.711,5.335,4.278,7.248,7.701c2.013,3.322,3.02,7.852,3.02,13.59c0,9.765-3.674,17.466-11.022,23.103
		c-7.35,5.637-17.365,8.456-30.05,8.456h-41.978V286.186H820.159z M820.462,327.56c4.831,0,8.204-1.007,10.116-3.02
		c2.014-2.013,3.021-4.429,3.021-7.248c0-6.04-4.58-9.06-13.741-9.06h-8.154v19.328H820.462z M811.703,348.851v22.65h10.269
		c5.033,0,8.557-1.057,10.569-3.171c2.014-2.215,3.021-4.983,3.021-8.305c0-2.919-1.007-5.486-3.021-7.701
		c-2.013-2.315-5.737-3.473-11.174-3.473H811.703z M950.359,394h-64.024V286.186h64.024v23.405h-34.881v16.912h32.313v23.405
		h-32.313v20.385h34.881V394z M1037.371,394l-5.285-20.234h-35.031L991.618,394h-32.012l35.183-108.267h38.808L1069.233,394
		H1037.371z M1021.365,332.241c-0.503-1.913-1.208-4.631-2.113-8.154c-0.906-3.624-1.813-7.349-2.719-11.174
		s-1.61-6.946-2.113-9.362c-0.403,2.416-1.058,5.436-1.964,9.06c-0.805,3.624-1.661,7.198-2.566,10.721
		c-0.806,3.523-1.511,6.493-2.114,8.909l-4.681,17.667h22.952L1021.365,332.241z M1129.821,394l-22.046-77.614h-0.604
		c0.202,2.014,0.403,4.731,0.604,8.154s0.402,7.147,0.604,11.174c0.201,3.926,0.302,7.751,0.302,11.476V394h-25.821V286.186h38.807
		l22.499,76.557h0.604l22.046-76.557h38.807V394h-26.727v-47.263c0-3.422,0.05-7.046,0.151-10.872
		c0.101-3.926,0.251-7.601,0.452-11.023c0.202-3.523,0.353-6.292,0.453-8.305h-0.604L1157.605,394H1129.821z"/>
</g>
<g id="g27" transform="translate(1046 632)">
	<path id="path26" fill="#0891b2" d="M-258.2-190.313l4.096,13.125l13.652,3.938l-13.652,3.938l-4.096,13.125l-4.096-13.125
		l-13.653-3.938l13.653-3.938L-258.2-190.313z"/>
	
		<path id="path27" opacity="0.55" fill="none" stroke="#0891b2" stroke-width="1.4" stroke-linecap="round" enable-background="new    " d="
		M-258.2-204.75v63 M-290.967-173.25h65.533"/>
</g>
<linearGradient id="text27_1_" gradientUnits="userSpaceOnUse" x1="637.7234" y1="445.1094" x2="937.723" y2="380.1095" gradientTransform="matrix(1 0 0 -1 -0.02 899.0947)">
	<stop  offset="0" style="stop-color:#ffffff"/>
	<stop  offset="1" style="stop-color:#0891b2"/>
</linearGradient>
<path id="text27" fill="url(#text27_1_)" d="M654.394,514.628h-7.344V472.4h-14.552v-6.324h36.448v6.324h-14.553V514.628z
	 M719.858,514.628l-5.168-14.008h-18.768l-5.168,14.008h-7.616l18.428-48.756h7.616l18.36,48.756H719.858z M707.754,480.56
	c-0.136-0.498-0.386-1.246-0.748-2.243c-0.317-0.998-0.635-2.04-0.952-3.129c-0.317-1.088-0.566-1.972-0.748-2.651
	c-0.362,1.405-0.771,2.901-1.224,4.487c-0.453,1.587-0.816,2.766-1.088,3.536l-4.896,13.668h14.552L707.754,480.56z M752.07,514.628
	v-48.552h7.345v42.228h20.739v6.324H752.07z M833.854,514.628h-27.336v-48.552h27.336v6.256h-19.992v13.872h18.769v6.188h-18.769
	v15.912h19.992V514.628z M902.241,514.628h-8.907l-24.548-39.236h-0.272c0.091,1.813,0.204,3.899,0.34,6.256
	c0.136,2.313,0.204,4.692,0.204,7.141v25.84h-6.664v-48.552h8.84l24.48,39.031h0.204c-0.046-0.951-0.113-2.152-0.204-3.604
	c-0.045-1.451-0.091-2.992-0.136-4.624c-0.046-1.678-0.091-3.241-0.137-4.692v-26.111h6.801L902.241,514.628z M949.482,514.628
	h-7.344V472.4h-14.552v-6.324h36.448v6.324h-14.553V514.628z"/>
</svg>
