<?xml version="1.0" encoding="UTF-8"?>
<svg xmlns="http://www.w3.org/2000/svg" xmlns:xlink="http://www.w3.org/1999/xlink" width="180px" height="62px" viewBox="0 0 180 62" version="1.1">
<g id="surface1">
<path style=" stroke:none;fill-rule:nonzero;fill:rgb(93.333334%,16.470589%,14.117648%);fill-opacity:1;" d="M 56.285156 0 L 78.4375 0 L 89.660156 18.539062 L 100.484375 0 L 122.425781 0 L 99.257812 39.675781 L 99.257812 62 L 80.351562 62 L 80.351562 39.757812 Z M 148.890625 61.984375 C 131.921875 61.984375 118.167969 48.109375 118.167969 30.992188 C 118.167969 13.875 131.921875 0 148.890625 0 C 165.859375 0 179.613281 13.875 179.613281 30.992188 C 179.613281 48.109375 165.859375 61.984375 148.890625 61.984375 Z M 148.890625 42.914062 C 155.414062 42.914062 160.707031 37.578125 160.707031 30.992188 C 160.707031 24.410156 155.414062 19.074219 148.890625 19.074219 C 142.363281 19.074219 137.074219 24.410156 137.074219 30.992188 C 137.074219 37.578125 142.363281 42.914062 148.890625 42.914062 Z M 30.722656 61.984375 C 13.753906 61.984375 0 48.109375 0 30.992188 C 0 13.875 13.753906 0 30.722656 0 C 47.691406 0 61.445312 13.875 61.445312 30.992188 C 61.445312 48.109375 47.691406 61.984375 30.722656 61.984375 Z M 30.722656 42.914062 C 37.25 42.914062 42.539062 37.578125 42.539062 30.992188 C 42.539062 24.410156 37.25 19.074219 30.722656 19.074219 C 24.195312 19.074219 18.90625 24.410156 18.90625 30.992188 C 18.90625 37.578125 24.195312 42.914062 30.722656 42.914062 Z M 30.722656 42.914062 "/>
</g>
</svg>
